<svg xmlns="http://www.w3.org/2000/svg" width="36.333" height="23.929" viewBox="0 0 36.333 23.929">
  <g id="Layer_47" data-name="Layer 47" transform="translate(-10.5 -17.84)">
    <path id="Path_78024" data-name="Path 78024" d="M11.767,20.375h16.9a1.267,1.267,0,0,0,0-2.535h-16.9a1.267,1.267,0,1,0,0,2.535Z" transform="translate(0)" fill="#fff"/>
    <path id="Path_78025" data-name="Path 78025" d="M46.833,31.767A1.267,1.267,0,0,0,45.566,30.5h-33.8a1.267,1.267,0,1,0,0,2.535h33.8A1.267,1.267,0,0,0,46.833,31.767Z" transform="translate(0 -1.963)" fill="#fff"/>
    <path id="Path_78026" data-name="Path 78026" d="M48.667,43.16h-16.9a1.267,1.267,0,0,0,0,2.535h16.9a1.267,1.267,0,1,0,0-2.535Z" transform="translate(-3.101 -3.926)" fill="#fff"/>
  </g>
</svg>
